<svg height="512pt" viewBox="0 0 512 512" width="512pt" xmlns="http://www.w3.org/2000/svg"><path d="m512 256c0 141.386719-114.613281 256-256 256s-256-114.613281-256-256 114.613281-256 256-256 256 114.613281 256 256zm0 0" fill="#4a7aff"/><path d="m343.796875 101.117188-286.585937 129.941406 270.6875 270.691406c102.402343-29.910156 178.242187-122.066406 183.777343-232.757812zm0 0" fill="#0053bf"/><path d="m172.136719 117.394531-119.199219 91s-9.960938 36.023438 36.789062 29.507813 33.46875-25.644532 115.601563-21.828125zm0 0" fill="#ff9500"/><path d="m222.304688 364.359375c-15.671876 35.3125-36.714844 89.789063-41.316407 136.464844 23.726563 7.257812 48.910157 11.175781 75.011719 11.175781 59.664062 0 114.558594-20.410156 158.085938-54.628906l-44.386719-302.492188c-5.78125-39.394531-34.394531-71.601562-72.839844-81.980468-24.503906-6.617188-50.613281-3.660157-73.019531 8.273437l-26.304688 14.003906c-32.96875 17.550781-47.722656 56.894531-34.429687 91.800781 6.628906 17.410157 23.261719 28.953126 41.867187 29.097657 28.082032.21875 49.554688 24.960937 44.910156 52.65625l-1.570312 9.367187c-4.988281 29.738282-13.773438 58.703125-26.007812 86.261719zm0 0" fill="#ffe89c"/><path d="m414.085938 457.371094-44.386719-302.492188c-5.78125-39.394531-34.394531-71.601562-72.839844-81.980468-13.5625-3.660157-27.617187-4.378907-41.265625-2.277344v441.375c.136719 0 .269531.003906.40625.003906 59.664062 0 114.558594-20.410156 158.085938-54.628906zm0 0" fill="#ffde91"/><path d="m264.300781 133.046875c0 8.644531-7.007812 15.648437-15.648437 15.648437-8.644532 0-15.652344-7.003906-15.652344-15.648437s7.007812-15.652344 15.652344-15.652344c8.640625 0 15.648437 7.007813 15.648437 15.652344zm0 0" fill="#595959"/><path d="m264.304688 133.046875c0-6.148437-3.554688-11.453125-8.707032-14.011719v28.023438c5.152344-2.5625 8.707032-7.867188 8.707032-14.011719zm0 0" fill="#474747"/><path d="m137.378906 167.371094c-1.605468-2.886719-8.910156-1.890625-16.316406 2.226562-7.410156 4.113282-12.117188 9.789063-10.511719 12.675782 1.601563 2.886718 8.910157 1.890624 16.316407-2.222657 7.410156-4.117187 12.113281-9.792969 10.511718-12.679687zm0 0" fill="#f24500"/></svg>