<?xml version="1.0" encoding="iso-8859-1"?>
<!-- Generator: Adobe Illustrator 21.0.0, SVG Export Plug-In . SVG Version: 6.00 Build 0)  -->
<svg xmlns="http://www.w3.org/2000/svg" xmlns:xlink="http://www.w3.org/1999/xlink" version="1.1" id="Capa_1" x="0px" y="0px" viewBox="0 0 512 512" style="enable-background:new 0 0 512 512;" xml:space="preserve" width="512" height="512">
<g>
	<g>
		<g>
			<circle style="fill:#FFD400;" cx="256" cy="256" r="256"/>
		</g>
	</g>
	<path style="fill:#FFA300;" d="M510.16,286.709L356.758,133.308l-68.722,212.776l117.621,117.62   C462.238,422.863,501.459,359.479,510.16,286.709z"/>
	<g>
		<path style="fill:#B46E5A;" d="M256,512c82.794,0,156.394-39.315,203.188-100.283C426.119,308.65,347.601,193.609,256,193.609    S85.881,308.65,52.812,411.717C99.606,472.685,173.206,512,256,512z"/>
	</g>
	<g>
		<path style="fill:#A65D4E;" d="M256,193.609c-0.135,0-0.27,0.007-0.405,0.008v318.38c0.135,0,0.27,0.003,0.405,0.003    c82.794,0,156.394-39.315,203.188-100.283C426.119,308.65,347.601,193.609,256,193.609z"/>
	</g>
	<g>
		<path style="fill:#C38778;" d="M396.036,237c0,69.036-62.696,125-140.036,125s-140.036-55.964-140.036-125S178.66,77,256,77    S396.036,167.964,396.036,237z"/>
	</g>
	<g>
		<path style="fill:#B46E5A;" d="M256,77c-0.135,0-0.27,0.007-0.405,0.007v284.988c0.135,0,0.27,0.004,0.405,0.004    c77.34,0,140.036-55.964,140.036-125S333.34,77,256,77z"/>
	</g>
	<g>
		<path style="fill:#784132;" d="M197.484,268h117.031C314.516,268,265.282,198.25,197.484,268z"/>
	</g>
	<g>
		<path style="fill:#61362B;" d="M255.595,237.06V268h58.92C314.516,268,291.634,235.603,255.595,237.06z"/>
	</g>
	<g>
		<path style="fill:#915041;" d="M295.312,437.6c-26.197,1.094-52.428,1.094-78.625,0c-27.577-1.136-47.984-21.43-45.664-43.613    c4.159-43.995,8.318-87.991,12.476-131.986c48.226,4.559,96.774,4.559,145,0c4.159,43.995,8.318,87.991,12.476,131.986    C343.299,416.167,322.89,436.466,295.312,437.6z"/>
	</g>
	<g>
		<path style="fill:#784132;" d="M340.976,393.986c-4.159-43.995-8.317-87.991-12.476-131.986    c-24.248,2.292-48.576,3.43-72.905,3.417v173.001c13.242,0.005,26.484-0.266,39.717-0.818    C322.89,436.466,343.299,416.167,340.976,393.986z"/>
	</g>
	<g>
		<g>
			<rect x="222.667" y="285.667" style="fill:#784132;" width="15.333" height="31.333"/>
		</g>
		<g>
			<rect x="274" y="285.667" style="fill:#61362B;" width="15.333" height="31.333"/>
		</g>
	</g>
	<g>
		<g>
			<ellipse style="fill:#784132;" cx="185.583" cy="210.25" rx="20.667" ry="9.25"/>
		</g>
		<g>
			<ellipse style="fill:#61362B;" cx="326.417" cy="210.25" rx="20.667" ry="9.25"/>
		</g>
	</g>
</g>















</svg>
